<?xml version="1.0" encoding="UTF-8"?>
<svg version="1.1" xmlns="http://www.w3.org/2000/svg" width="1490" height="260">
<path d="M0 0 C2.58123779 2.06684875 2.58123779 2.06684875 5.33886719 4.65356445 C6.10762743 5.37301097 6.10762743 5.37301097 6.89191818 6.10699177 C14.01915535 12.82846735 20.91458226 19.7909788 27.828125 26.73046875 C29.31291022 28.21712392 30.79791998 29.70355486 32.28314209 31.18977356 C36.15186979 35.06228104 40.0175825 38.93778411 43.88262939 42.81396484 C47.84307831 46.78472664 51.80643441 50.75258445 55.76953125 54.72070312 C63.51583454 62.47766346 71.25894903 70.23779835 79 78 C82.7013991 74.87263488 86.37112423 71.76556231 89.75708008 68.29296875 C90.40498001 67.63208252 91.05287994 66.97119629 91.72041321 66.2902832 C92.39662216 65.59636475 93.07283112 64.90244629 93.76953125 64.1875 C95.25019664 62.68444807 96.73133107 61.18185806 98.21289062 59.6796875 C100.51467169 57.3408877 102.81323689 54.99924403 105.10375977 52.64941406 C107.33718534 50.36105836 109.58348764 48.08599006 111.83203125 45.8125 C112.50216751 45.11858154 113.17230377 44.42466309 113.86274719 43.7097168 C120.82763978 36.70742473 128.48625282 31.00123973 138.625 30.6875 C157.09804163 31.06560319 170.68570287 50.55135931 182.75 62.6875 C184.23674275 64.17927211 185.72372043 65.67081013 187.2109375 67.16210938 C190.80999923 70.77205299 194.40588945 74.38512717 198 78 C202.94349694 73.86008876 207.57213908 69.5503278 212.09350586 64.95654297 C212.76442764 64.27934204 213.43534943 63.60214111 214.12660217 62.90441895 C215.57188343 61.44537172 217.01608533 59.98525466 218.4593029 58.52416611 C220.74789638 56.20874745 223.04100179 53.89789007 225.33558655 51.58840942 C231.85554666 45.02587739 238.37278985 38.46072659 244.8737793 31.87939453 C248.86077551 27.84378642 252.85754682 23.81808638 256.86081123 19.79861832 C258.37905323 18.27050553 259.89363895 16.7387507 261.40440178 15.20324326 C263.51942213 13.0543418 265.6466982 10.9183067 267.77709961 8.78466797 C268.69928787 7.83855148 268.69928787 7.83855148 269.6401062 6.87332153 C276.13169263 0.42634415 282.60517648 -2.54281157 291.6875 -3.3125 C299.50053001 -3.19434454 306.62948152 0.50161203 312 6 C317.07870325 13.01264654 318.9743081 20.73053916 317.640625 29.3125 C314.50789243 42.85945165 299.55023525 53.58170581 290.02734375 63.0703125 C288.49299023 64.60279733 286.95886002 66.13550577 285.42494202 67.66842651 C281.41759295 71.67198592 277.40724833 75.6725312 273.39624023 79.67242432 C269.29161883 83.76675462 265.18988199 87.86397254 261.08789062 91.9609375 C253.06139044 99.97676312 245.03171791 107.98940269 237 116 C241.05346886 120.87361447 245.31044922 125.43428826 249.828125 129.87817383 C250.4826062 130.52637589 251.1370874 131.17457794 251.81140137 131.84242249 C253.22133302 133.23859125 254.63233548 134.63367934 256.04431152 136.02778053 C258.28468251 138.24129805 260.52046877 140.45934905 262.75488281 142.67887878 C269.10417199 148.98563242 275.456025 155.28972104 281.82421875 161.57739258 C285.73021872 165.43466115 289.62620589 169.30180433 293.51599121 173.17542076 C294.99219894 174.64178386 296.47204145 176.10449784 297.95568848 177.56333351 C317.37785333 196.66779994 317.37785333 196.66779994 318.25 209.75 C318.12143698 217.33521799 315.2358761 224.50370074 310 230 C303.70141056 235.52225167 295.81404729 237.28699915 287.546875 236.87890625 C278.009319 235.2615235 270.82160449 228.27073628 264.27709961 221.61767578 C263.56377472 220.90478897 262.85044983 220.19190216 262.11550903 219.45741272 C259.78726069 217.12709414 257.46978696 214.78637241 255.15234375 212.4453125 C253.5291871 210.81655363 251.90536163 209.18846103 250.28089905 207.56100464 C246.02790829 203.29661448 241.78400827 199.0232895 237.54199219 194.74798584 C233.2034126 190.37859941 228.85622146 186.01779909 224.50976562 181.65625 C215.99810107 173.11250789 207.49602373 164.55929377 199 156 C195.70966274 157.56204302 193.55632374 159.21785339 191.00097656 161.83544922 C189.83891693 163.01710159 189.83891693 163.01710159 188.65338135 164.22262573 C187.82417175 165.07470612 186.99496216 165.9267865 186.140625 166.8046875 C184.3674697 168.60314286 182.59402298 170.40131093 180.8203125 172.19921875 C178.03407372 175.03501901 175.25110237 177.87387107 172.47363281 180.71826172 C169.7881973 183.46431762 167.09029054 186.19762999 164.390625 188.9296875 C163.15895599 190.20173538 163.15895599 190.20173538 161.90240479 191.4994812 C155.2483486 198.210649 149.17873545 202.42681927 139.51953125 203.03515625 C127.21297205 202.86343682 120.68035773 195.97384674 112.4453125 187.640625 C111.54376434 186.73624695 110.64221619 185.8318689 109.71334839 184.90008545 C107.33257905 182.51005 104.95623912 180.11578103 102.58197021 177.71929932 C100.15207429 175.26884125 97.71641395 172.82412725 95.28125 170.37890625 C90.51553337 165.59118389 85.7555782 160.79779172 81 156 C78.11513318 157.30639277 76.0626358 158.69235307 73.8394165 160.94026184 C73.23966003 161.54160446 72.63990356 162.14294708 72.02197266 162.76251221 C71.37566895 163.4207196 70.72936523 164.078927 70.06347656 164.75708008 C69.0284903 165.79885658 69.0284903 165.79885658 67.97259521 166.86167908 C66.47536948 168.36985941 64.98042449 169.88030657 63.48749542 171.39274025 C61.12089822 173.78950953 58.74767796 176.17953301 56.37249756 178.5677948 C49.62062843 185.35940042 42.88142594 192.16352498 36.14550781 198.97094727 C32.02349697 203.13578404 27.89411363 207.29319794 23.76036835 211.44638634 C22.1898467 213.02744657 20.62224499 214.61141305 19.05768585 216.19837379 C16.86334038 218.42407689 14.6597831 220.64027477 12.45410156 222.85473633 C11.81589478 223.50687103 11.17768799 224.15900574 10.5201416 224.8309021 C2.93335354 232.40237253 -4.1479931 236.41146523 -15 237 C-21.9741425 236.655735 -27.89337376 233.70422793 -33 229 C-38.96989172 220.9525359 -41.03926203 213.98914208 -40 204 C-35.72229974 189.7896884 -20.66474491 178.52923365 -10.46484375 168.3671875 C-8.97533065 166.87954325 -7.48604097 165.39167527 -5.9969635 163.90359497 C-2.10798241 160.01840234 1.783994 156.1362242 5.67663574 152.25469971 C9.66061226 148.28101691 13.64170191 144.30444411 17.62304688 140.328125 C25.41256696 132.54927737 33.20525949 124.77361629 41 117 C36.83782412 112.02486923 32.49677534 107.38363499 27.86474609 102.84643555 C26.44240609 101.44374818 25.02007367 100.04105313 23.5977478 98.63835144 C22.85235119 97.90518393 22.10695457 97.17201641 21.33897018 96.4166317 C17.35989018 92.4987617 13.39626 88.56529076 9.4296875 84.63476562 C4.3967425 79.64970893 -0.64056711 74.66929193 -5.69335938 69.7043457 C-9.79176899 65.67638736 -13.87519763 61.63376253 -17.94919968 57.58112526 C-19.49787516 56.04598912 -21.0519361 54.51626523 -22.61156082 52.99225426 C-24.79644232 50.8559267 -26.96165639 48.70131727 -29.12353516 46.54174805 C-29.76363022 45.92479568 -30.40372528 45.30784332 -31.06321716 44.67219543 C-36.33980771 39.33519803 -39.24780842 33.34169405 -40.53125 25.93359375 C-40.41929532 16.99121383 -37.77282619 10.1350586 -31.7109375 3.50390625 C-22.8526162 -4.28251772 -10.38412004 -5.00052046 0 0 Z M118 116 C120.42132784 121.70741563 125.42188208 124.76698708 130.875 127.375 C140.69918903 129.33983781 147.52369492 127.41886952 156 122 C158.28508584 119.91476555 158.28508584 119.91476555 160 118 C158.60424517 114.69313471 157.0752907 112.98424674 154.1875 110.875 C153.52105469 110.37742187 152.85460937 109.87984375 152.16796875 109.3671875 C140.41244936 101.95379689 126.66551047 105.89023778 118 116 Z " fill="#1D262F" transform="translate(64,23)"/>
<path d="M0 0 C95.47233607 0 95.47233607 0 111.25 14.75 C123.18051311 27.48728961 126.87756187 41.30886484 126.32421875 58.37109375 C125.85364071 66.84999262 122.98299953 73.6145191 119 81 C118.32959852 82.33145938 117.66195527 83.66432136 117 85 C117.74443359 85.58394531 117.74443359 85.58394531 118.50390625 86.1796875 C130.48662759 96.04781096 137.40699686 109.57187369 139 125 C140.50738831 141.58127136 135.11422594 156.42520243 124.75 169.25 C114.75749642 179.97855853 103.14620428 185.17075914 89 188 C59.63 188 30.26 188 0 188 C0 125.96 0 63.92 0 0 Z M34 33 C34 46.2 34 59.4 34 73 C39.83541167 73.06910356 45.66938706 73.12876741 51.50488281 73.16479492 C53.4873538 73.17982344 55.46979186 73.20025198 57.45214844 73.22631836 C60.31193193 73.26296383 63.17127344 73.27978604 66.03125 73.29296875 C66.90865845 73.30845261 67.78606689 73.32393646 68.69006348 73.33988953 C75.24997324 73.34165852 80.99401133 72.45611269 86.2421875 68.16796875 C90.88815399 62.5327893 93.29911661 58.47784555 92.875 51 C92.07785054 44.88852082 89.57040699 41.57040699 85.25 37.25 C78.83550539 32.80919604 72.01258415 32.71086974 64.46875 32.8046875 C63.69047852 32.80670166 62.91220703 32.80871582 62.11035156 32.81079102 C59.24017327 32.82114964 56.37007987 32.84907107 53.5 32.875 C47.065 32.91625 40.63 32.9575 34 33 Z M34 106 C34 121.84 34 137.68 34 154 C41.40215704 154.09201576 48.80231579 154.1716036 56.20458984 154.21972656 C58.72060891 154.23979516 61.23658161 154.2670563 63.75244141 154.30175781 C67.37674428 154.35048312 71.00042841 154.37301722 74.625 154.390625 C76.30203003 154.42159271 76.30203003 154.42159271 78.01293945 154.45318604 C86.20197743 154.45551901 91.53248776 152.99466966 97.75 147.625 C103.25054486 141.20769766 105.43958663 136.36277652 105.33984375 127.984375 C104.58361408 121.34346155 101.42297049 115.94898646 96.5 111.5 C88.78872758 105.58746931 80.23650487 105.85492125 70.9140625 105.90234375 C69.5077356 105.90385437 69.5077356 105.90385437 68.07299805 105.90539551 C64.59031949 105.91060446 61.10765844 105.92456565 57.625 105.9375 C49.82875 105.958125 42.0325 105.97875 34 106 Z " fill="#171C20" transform="translate(442,46)"/>
<path d="M0 0 C0.96421875 0.32742187 1.9284375 0.65484375 2.921875 0.9921875 C21.49754611 7.97009504 35.18083504 22.85525323 43.75 40.375 C49.09940245 53.09731464 49.41247601 65.30904622 49.29296875 78.86328125 C49.28736099 80.7504187 49.28309648 82.63756057 49.28010559 84.52470398 C49.26874964 89.44839927 49.23936406 94.37182144 49.20599365 99.29541016 C49.17509132 104.3368765 49.16155751 109.37838775 49.14648438 114.41992188 C49.11448389 124.28006673 49.06340197 134.14001049 49 144 C38.56763209 144.06991871 28.13532114 144.12302186 17.70276546 144.15543652 C12.85701581 144.1710043 8.01142802 144.19207743 3.16577148 144.22631836 C-1.52214049 144.2592323 -6.20989807 144.27691958 -10.89791679 144.28463173 C-12.67463036 144.29011837 -14.45133676 144.30082988 -16.22798347 144.31719017 C-30.09165823 144.43962246 -43.98122591 144.03604862 -56.4375 137.1875 C-57.43994751 136.6608374 -57.43994751 136.6608374 -58.46264648 136.12353516 C-63.33822334 133.50615156 -67.78523469 130.59553438 -72 127 C-72.56460938 126.5771875 -73.12921875 126.154375 -73.7109375 125.71875 C-87.27052678 115.16558549 -95.75695307 97.80538278 -98 81 C-99.77043374 60.7197955 -96.63568269 40.705313 -83.31640625 24.640625 C-80.67316239 21.61990672 -77.87785611 18.79756351 -75 16 C-74.29746094 15.31164062 -73.59492187 14.62328125 -72.87109375 13.9140625 C-53.59544769 -3.92077769 -24.55102635 -8.54260858 0 0 Z M-51 40 C-51.61746094 40.51304687 -52.23492188 41.02609375 -52.87109375 41.5546875 C-60.56145366 48.46774221 -63.61200809 57.66526055 -64.83984375 67.73828125 C-65.40088883 79.16444327 -61.33154041 87.50268939 -55.125 96.8125 C-47.38387399 104.78130619 -37.92114924 110.02723979 -26.70092773 110.59399414 C-15.25366082 110.75525902 -5.88896704 107.41935355 2.96484375 100.01171875 C11.0106264 92.05859387 15.19559721 82.81528278 15.9921875 71.59375 C16.02711654 59.99730749 11.65771876 49.46467118 3.6875 41.0625 C-5.7123544 32.34196281 -15.47551331 29.48640988 -28.20703125 29.6875 C-37.26407181 30.43370314 -44.25596826 34.07212497 -51 40 Z " fill="#2B3F53" transform="translate(1004,90)"/>
<path d="M0 0 C1.87793439 1.81756666 3.68773133 3.67709044 5.5 5.5625 C6.24894531 6.3153125 6.99789062 7.068125 7.76953125 7.84375 C16.44257459 16.99770779 21.46257564 27.39647231 24.5 39.5625 C24.67764389 40.27298996 24.85528778 40.98347992 25.03831482 41.71549988 C25.65036758 45.48974769 25.63095635 49.21299181 25.61352539 53.0246582 C25.61367142 53.8641954 25.61381744 54.7037326 25.6139679 55.56871033 C25.61327326 58.33359392 25.60550188 61.09840948 25.59765625 63.86328125 C25.59579048 65.78427595 25.59436732 67.70527113 25.59336853 69.62626648 C25.58955591 74.67490967 25.57973633 79.72352396 25.56866455 84.77215576 C25.55842345 89.92687591 25.55386513 95.08160073 25.54882812 100.23632812 C25.53811294 110.34506476 25.52105158 120.45377997 25.5 130.5625 C15.05036124 130.63237835 4.60077917 130.6855018 -5.84904671 130.71793652 C-10.70267181 130.73351292 -15.55613564 130.75460237 -20.40966797 130.78881836 C-25.10405918 130.82170083 -29.79829644 130.83941316 -34.49279404 130.84713173 C-36.27312514 130.85262389 -38.05344897 130.86334674 -39.83371353 130.87969017 C-59.93721173 131.05670624 -76.7564371 127.3657772 -93.5 115.5625 C-94.41845703 114.92441406 -94.41845703 114.92441406 -95.35546875 114.2734375 C-108.77792602 103.87980076 -118.07817226 86.92503158 -121.0625 70.41796875 C-123.51095701 48.84094137 -120.14095324 28.68743188 -106.5625 11.1875 C-105.22941838 9.62756511 -103.87591464 8.08478853 -102.5 6.5625 C-101.88511719 5.86640625 -101.27023437 5.1703125 -100.63671875 4.453125 C-87.9637558 -9.08569257 -70.83717076 -15.93560225 -52.58203125 -17.33984375 C-33.32948293 -17.9498738 -14.37808399 -13.33501809 0 0 Z M-78.86328125 30.43359375 C-87.01774315 41.04023274 -88.87677017 52.57516587 -87.5 65.5625 C-84.63668146 76.63317557 -78.23987972 85.60544108 -68.5 91.5625 C-58.29970981 96.8222872 -47.3909839 98.52151456 -36.1328125 95.7265625 C-24.44113164 91.20173017 -16.16510384 83.73176723 -10.5 72.5625 C-6.53483091 62.32367297 -6.421944 51.09534251 -10.57421875 40.93359375 C-16.08830493 29.26182142 -24.45469585 21.97760209 -36.5 17.5625 C-52.19057288 12.56402636 -67.97950085 19.09315123 -78.86328125 30.43359375 Z " fill="#202B36" transform="translate(717.5,103.4375)"/>
<path d="M0 0 C11.22 0 22.44 0 34 0 C34 15.84 34 31.68 34 48 C39.94 45.525 39.94 45.525 46 43 C62.49896833 37.67775215 80.49584316 39.56514218 96 47 C112.32852351 55.52019687 123.80141347 69.65616205 129.35395336 87.11117554 C132.06683261 96.6184918 131.61905062 106.326287 131.48828125 116.125 C131.4789318 118.2096267 131.4718258 120.29426454 131.46684265 122.37890625 C131.44794058 127.81074468 131.39898847 133.24189248 131.34332275 138.67346191 C131.29176387 144.23794213 131.26925109 149.80253621 131.24414062 155.3671875 C131.19085003 166.24514072 131.10305558 177.12240433 131 188 C120.11 188 109.22 188 98 188 C97.99589111 185.39706055 97.99178223 182.79412109 97.98754883 180.11230469 C97.97028712 171.47485191 97.92567858 162.83769237 97.86790943 154.20042038 C97.83374031 148.96786613 97.80854516 143.73560074 97.80444336 138.50292969 C97.80013875 133.44518295 97.77149769 128.38808671 97.72656822 123.33054352 C97.71366204 121.40906831 97.70926091 119.48751498 97.71384621 117.56600189 C97.73741139 104.68244241 97.2795149 93.60599573 88.25 83.5 C81.32199162 77.18868934 73.03516026 74.61918103 63.796875 74.71484375 C56.64762034 75.44374821 50.32325936 78.19189477 45 83 C44.34 83 43.68 83 43 83 C42.72285156 83.5671875 42.44570313 84.134375 42.16015625 84.71875 C40.5911452 87.80394344 38.85075124 90.78386135 37.12109375 93.78125 C34.71384493 98.54542187 34.83202102 103.28652387 34.79467773 108.53222656 C34.78477814 109.39112488 34.77487854 110.25002319 34.76467896 111.13494873 C34.73312509 113.97014624 34.70833068 116.8053605 34.68359375 119.640625 C34.66301895 121.60789421 34.64202233 123.57515905 34.62062073 125.54241943 C34.56545445 130.71761535 34.51602115 135.89285081 34.46777344 141.06811523 C34.41751868 146.35013341 34.36185336 151.63209424 34.30664062 156.9140625 C34.1991256 167.27599448 34.09816589 177.63797523 34 188 C22.78 188 11.56 188 0 188 C0 125.96 0 63.92 0 0 Z " fill="#23313F" transform="translate(759,46)"/>
<path d="M0 0 C1.89557999 1.8400041 3.72723086 3.72284787 5.5625 5.625 C6.38492187 6.42808594 7.20734375 7.23117188 8.0546875 8.05859375 C21.87072392 22.22351997 26.21250164 40.47857448 26.03320312 59.70385742 C25.42876804 80.06978312 17.64266143 96.18822864 3.4453125 110.8046875 C-12.23353738 125.56463043 -30.79190829 131.15647964 -52.015625 130.83984375 C-67.38876149 130.30411324 -81.01540875 124.38188091 -93.4375 115.625 C-94.35595703 114.98691406 -94.35595703 114.98691406 -95.29296875 114.3359375 C-108.75797419 103.90935372 -117.99082949 86.96572503 -121.00390625 70.421875 C-123.63084737 47.41839057 -118.86668055 26.94959831 -104.4375 8.625 C-90.89066353 -7.07600555 -73.08735524 -15.69520344 -52.51953125 -17.27734375 C-33.32354471 -17.8855816 -14.34630653 -13.3020912 0 0 Z M-77.4375 18.625 C-78.489375 19.40875 -79.54125 20.1925 -80.625 21 C-91.59282426 31.23663598 -95.8679085 43.9032505 -96.4375 58.625 C-95.65070454 72.49829134 -89.19518472 83.94491118 -79.4375 93.625 C-67.89405983 103.27088836 -55.13808431 105.80102319 -40.51806641 104.81689453 C-27.49758648 103.61599131 -16.67258088 95.38509586 -8.4375 85.625 C-0.61304866 75.21522666 1.6950897 63.47135987 0.5625 50.625 C-1.59436168 37.04847531 -8.00307269 26.52320938 -18.66796875 17.80078125 C-36.73876348 5.10324938 -59.89276405 4.96720758 -77.4375 18.625 Z " fill="#252525" transform="translate(1304.4375,103.375)"/>
<path d="M0 0 C9.60674559 7.20505919 17.7061093 17.72779728 19.5 29.875 C19.5 33.175 19.5 36.475 19.5 39.875 C11.25 39.875 3 39.875 -5.5 39.875 C-6.49 36.575 -7.48 33.275 -8.5 29.875 C-11.28890964 24.40047367 -15.08021313 21.53196583 -20.5 18.875 C-26.68142515 17.00147925 -31.76960194 17.24712557 -37.625 19.875 C-43.0051327 22.78474819 -47.23885515 26.92029888 -49.1328125 32.859375 C-50.46800404 40.18872432 -49.72640605 46.62483867 -45.5 52.875 C-37.78529201 61.61721276 -25.97352313 65.44855016 -15.5 69.875 C4.69697289 78.45599675 4.69697289 78.45599675 10.5 83.875 C11.1084375 84.41769531 11.716875 84.96039063 12.34375 85.51953125 C22.32697266 94.88937794 26.81398855 107.10480764 27.53125 120.71484375 C27.36245082 137.78466125 22.55977192 151.13574518 11 163.5625 C9.7625 164.7071875 9.7625 164.7071875 8.5 165.875 C8.00113281 166.35582031 7.50226563 166.83664063 6.98828125 167.33203125 C-3.82756305 177.29067577 -17.41579902 180.5089407 -31.83203125 180.15625 C-46.66632975 179.0187958 -59.36713399 172.72912904 -69.5 161.875 C-79.00295199 150.57168406 -83.5 137.51674651 -83.5 122.875 C-74.92 122.875 -66.34 122.875 -57.5 122.875 C-56.84 126.505 -56.18 130.135 -55.5 133.875 C-52.34144256 141.8298854 -47.7714667 147.65910226 -39.875 151.3125 C-32.34994131 153.95829689 -24.07954661 154.27245672 -16.625 151.25 C-7.31012547 146.33665959 -2.81380059 139.81640176 0.5 129.875 C1.33640077 120.86655241 0.55910613 113.01526991 -5.171875 105.7578125 C-11.9475677 99.00838217 -20.85368696 95.59784942 -29.5 91.875 C-30.92320113 91.25917015 -32.34637876 90.64328599 -33.76953125 90.02734375 C-34.45313721 89.73166504 -35.13674316 89.43598633 -35.84106445 89.13134766 C-51.98389562 82.13631459 -65.70522636 75.32058175 -73.4921875 58.765625 C-78.08702223 47.12537703 -77.7595575 32.6929104 -72.98046875 21.23046875 C-66.74826421 7.95428744 -58.2131913 -0.62377791 -44.5 -6.125 C-29.1145875 -10.67249062 -13.35089729 -9.10288452 0 0 Z " fill="#171717" transform="translate(1144.5,54.125)"/>
<path d="M0 0 C1.3056028 8.44013434 2.60959453 16.88051532 3.91151428 25.32121849 C4.5160592 29.24031094 5.12116457 33.15931517 5.72753906 37.078125 C6.31239777 40.85802008 6.89579957 44.63813738 7.47817993 48.41841507 C7.70093612 49.86262698 7.9242225 51.30675721 8.14804077 52.7508049 C8.46076274 54.76903888 8.77144688 56.7875883 9.08203125 58.80615234 C9.25968018 59.95642914 9.4373291 61.10670593 9.62036133 62.2918396 C10 65 10 65 10 67 C-4.33234479 69.6372008 -18.72377936 71.83896682 -33.1328125 74.01171875 C-35.62523954 74.3885384 -38.1176609 74.76539556 -40.6100769 75.14228821 C-45.79873425 75.926268 -50.98766419 76.70841537 -56.17675781 77.48950195 C-62.15852152 78.38996393 -68.13943374 79.29593692 -74.11999619 80.20433968 C-79.91307114 81.08396535 -85.70699446 81.95789257 -91.50124741 82.82972145 C-93.95187584 83.1992313 -96.40225038 83.57042914 -98.85235977 83.9433651 C-102.26820932 84.46280963 -105.68497802 84.97573349 -109.10205078 85.48706055 C-110.10680954 85.64130997 -111.1115683 85.79555939 -112.14677429 85.95448303 C-125.87832407 87.98966783 -125.87832407 87.98966783 -132.62817383 84.64501953 C-133.68228958 84.13093536 -134.73640533 83.6168512 -135.82246399 83.08718872 C-136.93937119 82.52474457 -138.05627838 81.96230042 -139.20703125 81.3828125 C-140.36877365 80.81045868 -141.53051605 80.23810486 -142.72746277 79.64840698 C-145.17664216 78.4411093 -147.62113983 77.22498244 -150.06225586 76.00146484 C-153.19125247 74.43329113 -156.32774678 72.88091616 -159.46739674 71.33419991 C-162.46663355 69.8558101 -165.4618878 68.36947988 -168.45703125 66.8828125 C-169.5840596 66.32441681 -170.71108795 65.76602112 -171.87226868 65.19070435 C-172.91062363 64.67031586 -173.94897858 64.14992737 -175.01879883 63.61376953 C-175.93478348 63.15632355 -176.85076813 62.69887756 -177.79450989 62.22756958 C-180 61 -180 61 -182 59 C-175.71867638 53.18035974 -169.34904488 47.59447736 -162.68359375 42.21484375 C-160.05291443 40.04367173 -157.52057576 37.79758643 -155 35.5 C-149.83195552 30.7942726 -144.46917467 26.35087697 -139 22 C-138.39781773 21.48719577 -137.79563545 20.97439154 -137.17520523 20.44604778 C-134.62644638 18.75166647 -132.77048421 18.36743875 -129.75140381 17.91792297 C-128.15760139 17.67193359 -128.15760139 17.67193359 -126.53160095 17.42097473 C-125.37100662 17.25409653 -124.21041229 17.08721832 -123.01464844 16.9152832 C-121.78821121 16.72952728 -120.56177399 16.54377136 -119.298172 16.35238647 C-115.93758 15.8459517 -112.57575669 15.35006716 -109.21288204 14.85916543 C-105.68806835 14.34241091 -102.1651186 13.81323455 -98.64190674 13.28569031 C-92.72158535 12.40111529 -86.79997492 11.52563979 -80.87744141 10.65600586 C-74.04357727 9.65248809 -67.21161579 8.63678116 -60.38061309 7.61397868 C-53.09487266 6.52321434 -45.80782503 5.44138951 -38.52036762 4.36216331 C-36.42788172 4.05167255 -34.33564706 3.73953504 -32.24346161 3.42702675 C-28.33097482 2.84316475 -24.41705468 2.26931483 -20.50292969 1.6965332 C-19.35043228 1.52358231 -18.19793488 1.35063141 -17.01051331 1.17243958 C-11.27174186 0.3412242 -5.79868699 -0.19103349 0 0 Z M-35 25 C-35.66 24.67 -36.32 24.34 -37 24 C-40.79415519 23.46881827 -44.46331178 23.14910652 -47.890625 25.046875 C-50.0405787 26.82110863 -51.74635623 28.49271246 -53 31 C-53.65754393 39.25752847 -53.74636591 50.50726818 -50 58 C-48.33388095 58.042721 -46.66617115 58.04063832 -45 58 C-44.505 57.505 -44.505 57.505 -44 57 C-44.06626156 55.22599743 -44.20539326 53.45461891 -44.375 51.6875 C-44.47167969 50.61113281 -44.56835938 49.53476562 -44.66796875 48.42578125 C-44.88842239 46.15121844 -45.12010648 43.87771473 -45.36328125 41.60546875 C-45.47027344 40.53941406 -45.57726562 39.47335938 -45.6875 38.375 C-45.79449219 37.39273438 -45.90148437 36.41046875 -46.01171875 35.3984375 C-46 33 -46 33 -44 31 C-41.5 30.6875 -41.5 30.6875 -39 31 C-37.05991537 33.91012694 -36.66483739 35.03035878 -36.21875 38.34375 C-36.09886719 39.17777344 -35.97898437 40.01179688 -35.85546875 40.87109375 C-35.61848958 42.62369792 -35.38151042 44.37630208 -35.14453125 46.12890625 C-35.02464844 46.96292969 -34.90476562 47.79695313 -34.78125 48.65625 C-34.67876953 49.41744141 -34.57628906 50.17863281 -34.47070312 50.96289062 C-34.05800528 53.29555885 -34.05800528 53.29555885 -32 56 C-29.525 55.505 -29.525 55.505 -27 55 C-27.14477936 53.06242096 -27.29089498 51.12494176 -27.4375 49.1875 C-27.52386719 48.00800781 -27.61023438 46.82851563 -27.69921875 45.61328125 C-27.88879229 43.33593682 -28.1155052 41.06109138 -28.39453125 38.79296875 C-28.51183594 37.83003906 -28.62914062 36.86710937 -28.75 35.875 C-28.86859375 35.00617187 -28.9871875 34.13734375 -29.109375 33.2421875 C-29 31 -29 31 -27.68359375 29.17578125 C-26 28 -26 28 -23.3125 28.3125 C-22.549375 28.539375 -21.78625 28.76625 -21 29 C-18.85881676 36.90590733 -17.4658201 44.94776158 -16 53 C-14.02 52.67 -12.04 52.34 -10 52 C-10.26609169 37.18032799 -10.26609169 37.18032799 -16 24 C-18.87499118 21.68403488 -20.69907283 21.03900908 -24.375 20.5625 C-28.86035765 21.10383627 -31.17031302 22.67215105 -35 25 Z M-85.80078125 32.73828125 C-89.22852567 36.95138 -91 40.43926205 -91 46 C-89.83984411 52.11718559 -87.66183629 55.92968289 -82.75 59.75 C-77.63137905 62.07664589 -73.13676226 62.63523646 -67.8125 60.9375 C-62.77138917 58.76853483 -60.401828 55.35761982 -57.625 50.6875 C-56.36867709 45.28531147 -57.18847653 40.59299052 -59.6875 35.6875 C-63.34452158 31.43744789 -66.39972529 29.38716324 -71.875 28.0625 C-77.3404383 27.66615142 -81.81410664 28.88997278 -85.80078125 32.73828125 Z M-123.3125 40.5625 C-126.46003567 45.10894041 -126.74588925 49.64000518 -126 55 C-124.2055833 59.77952112 -121.59729912 63.02022325 -117.125 65.5 C-112.57210699 67.40982778 -108.70497215 67.90675149 -103.92578125 66.3046875 C-98.97318488 64.12591128 -96.49681707 61.78556605 -94 57 C-94 56.34 -94 55.68 -94 55 C-99.40601295 55.25158603 -99.40601295 55.25158603 -104.0625 57.5625 C-106.98395252 59.73002929 -109.46718405 59.25693207 -113 59 C-116 58 -116 58 -118 55 C-118.5664503 51.00542188 -118.50319299 47.25798248 -117 43.5 C-113.93089765 41.19817324 -110.77372178 41.02310442 -107 41 C-105.66431979 41.32380126 -104.33076989 41.65657551 -103 42 C-100.65885633 41.72686657 -98.32249342 41.40197001 -96 41 C-100.8516391 35.8399502 -100.8516391 35.8399502 -107.3671875 33.6640625 C-114.61663123 33.55114282 -118.3459488 35.05902434 -123.3125 40.5625 Z M-133 64 C-134.10836423 65.88316159 -134.10836423 65.88316159 -135 68 C-134.67 68.66 -134.34 69.32 -134 70 C-131.52733235 69.65555119 -131.52733235 69.65555119 -129 69 C-128.67 68.34 -128.34 67.68 -128 67 C-128.66 66.01 -129.32 65.02 -130 64 C-130.99 64 -131.98 64 -133 64 Z " fill="#F9991D" transform="translate(1021,1)"/>
<path d="M0 0 C1.0204541 0.00374634 1.0204541 0.00374634 2.06152344 0.00756836 C2.91262695 0.01667236 3.76373047 0.02577637 4.640625 0.03515625 C7.363125 0.05578125 10.085625 0.07640625 12.890625 0.09765625 C12.890625 8.34765625 12.890625 16.59765625 12.890625 25.09765625 C5.328125 25.84765625 5.328125 25.84765625 2.98999023 26.05371094 C-2.26794876 26.64604152 -5.63705524 28.28932691 -10.109375 31.09765625 C-11.099375 31.42765625 -12.089375 31.75765625 -13.109375 32.09765625 C-14.21106484 33.79534859 -14.21106484 33.79534859 -15.109375 36.09765625 C-15.8828125 37.79921875 -15.8828125 37.79921875 -16.671875 39.53515625 C-18.30181249 43.25792112 -18.30181249 43.25792112 -19.109375 48.09765625 C-8.549375 48.09765625 2.010625 48.09765625 12.890625 48.09765625 C12.890625 56.67765625 12.890625 65.25765625 12.890625 74.09765625 C2.330625 74.09765625 -8.229375 74.09765625 -19.109375 74.09765625 C-19.109375 111.71765625 -19.109375 149.33765625 -19.109375 188.09765625 C-27.689375 188.09765625 -36.269375 188.09765625 -45.109375 188.09765625 C-45.109375 150.47765625 -45.109375 112.85765625 -45.109375 74.09765625 C-50.389375 74.09765625 -55.669375 74.09765625 -61.109375 74.09765625 C-61.109375 65.51765625 -61.109375 56.93765625 -61.109375 48.09765625 C-55.829375 48.09765625 -50.549375 48.09765625 -45.109375 48.09765625 C-45.00625 46.46828125 -44.903125 44.83890625 -44.796875 43.16015625 C-43.88998418 33.58878147 -40.84836935 26.76844968 -35.109375 19.09765625 C-34.65691406 18.47890625 -34.20445313 17.86015625 -33.73828125 17.22265625 C-25.95215604 7.34111491 -12.79026104 -0.09689592 0 0 Z " fill="#313131" transform="translate(1402.109375,45.90234375)"/>
<path d="M0 0 C5.31384133 1.31300951 8.43357932 3.85968018 12.18554688 7.66796875 C12.77175308 8.24716568 13.35795929 8.82636261 13.96192932 9.42311096 C15.89103185 11.33465653 17.8051857 13.26040908 19.71875 15.1875 C21.06285231 16.5289053 22.40754771 17.86971656 23.75280762 19.20996094 C26.57011222 22.02137232 29.38006786 24.83987855 32.18505859 27.66357422 C35.76236018 31.2635766 39.35720147 34.84543796 42.9578476 38.42207336 C45.73969669 41.1893848 48.51184535 43.96625708 51.28126526 46.7460022 C52.60188588 48.0692727 53.92543319 49.38962959 55.25205994 50.70687866 C73.38248311 68.7372467 73.38248311 68.7372467 74.25 81.75 C74.12143698 89.33521799 71.2358761 96.50370074 66 102 C59.70141056 107.52225167 51.81404729 109.28699915 43.546875 108.87890625 C30.91670453 106.73707664 21.89853169 95.37260174 13.3046875 86.7734375 C11.90296937 85.37882841 10.50095645 83.98451556 9.09866333 82.59048462 C6.1771253 79.6823303 3.26151974 76.7683789 0.34960938 73.85058594 C-3.38853536 70.1065078 -7.14473054 66.38112064 -10.90590096 62.66019249 C-13.79860815 59.79326227 -16.67984192 56.91501583 -19.55785751 54.03334427 C-20.93906212 52.65383589 -22.3242673 51.27832122 -23.71347427 49.9068718 C-25.64545154 47.99691701 -27.56102556 46.07189653 -29.47314453 44.14208984 C-30.05169693 43.57680069 -30.63024933 43.01151154 -31.22633362 42.42909241 C-32.78909302 40.83236694 -32.78909302 40.83236694 -35 38 C-34.53665171 34.50106725 -33.24906021 32.88098944 -30.76538086 30.42480469 C-30.08475082 29.74440125 -29.40412079 29.0639978 -28.7028656 28.36297607 C-27.96431839 27.63991272 -27.22577118 26.91684937 -26.46484375 26.171875 C-25.71159317 25.42286926 -24.95834259 24.67386353 -24.18226624 23.90216064 C-21.77428956 21.51097956 -19.35609255 19.13043835 -16.9375 16.75 C-15.30335262 15.13089823 -13.66988045 13.51111468 -12.03710938 11.890625 C-8.03254154 7.91913818 -4.01953193 3.9563379 0 0 Z " fill="#253342" transform="translate(308,151)"/>
<path d="M0 0 C8.58 0 17.16 0 26 0 C26 13.53 26 27.06 26 41 C32.27 41 38.54 41 45 41 C45 49.25 45 57.5 45 66 C38.73 66 32.46 66 26 66 C26.06303413 75.90158164 26.13854274 85.80285597 26.23571491 95.7041626 C26.28034864 100.30226878 26.31962003 104.9002878 26.34643555 109.49853516 C26.37253855 113.9401946 26.41298999 118.38151733 26.46318626 122.82296753 C26.4798078 124.51329342 26.49135133 126.20367748 26.49761391 127.89407349 C26.50730668 130.27088308 26.53542585 132.64684034 26.56762695 135.0234375 C26.56547432 136.06030449 26.56547432 136.06030449 26.5632782 137.11811829 C26.69876331 144.23794248 28.81726459 150.95365236 34 156 C41.26082985 161.63820648 49.12583033 162.12057778 58 163 C58 171.25 58 179.5 58 188 C39.65760004 188.5558303 26.8355402 185.14226724 13.328125 172.484375 C0.71181539 159.0213332 -0.16301019 143.69963522 -0.11352539 126.12670898 C-0.11324282 124.74608868 -0.11340262 123.36546824 -0.1139679 121.98484802 C-0.11425313 118.26234582 -0.10840082 114.53987628 -0.10139394 110.81738162 C-0.09511467 106.91764923 -0.094553 103.01791598 -0.09336853 99.11817932 C-0.09026865 91.74486749 -0.08207345 84.3715706 -0.07201904 76.99826533 C-0.06081608 68.59918584 -0.05533694 60.20010561 -0.05032361 51.8010205 C-0.03988964 34.53400356 -0.02156095 17.26700718 0 0 Z " fill="#383838" transform="translate(1432,46)"/>
<path d="M0 0 C0.76828125 0.71027344 1.5365625 1.42054687 2.328125 2.15234375 C3.18664063 2.94511719 4.04515625 3.73789063 4.9296875 4.5546875 C8.41995194 7.89566334 11.81977589 11.3205043 15.21484375 14.7578125 C17.25684107 16.7728082 19.33470786 18.66623523 21.515625 20.52734375 C24.90197894 23.45066562 28.17733206 26.47803991 31.390625 29.58984375 C32.30457031 30.46640625 33.21851562 31.34296875 34.16015625 32.24609375 C38.23422378 37.03756574 40.00721063 41.75863487 40.015625 48.02734375 C40.03496094 48.98511719 40.05429688 49.94289062 40.07421875 50.9296875 C38.80290751 59.0280402 33.89780457 64.39872419 28.328125 70.08984375 C27.65716797 70.79044922 26.98621094 71.49105469 26.29492188 72.21289062 C22.34468325 76.32405071 18.33644815 80.37532428 14.265625 84.3671875 C12.44426002 86.22649758 10.76372265 88.16950902 9.078125 90.15234375 C3.63287335 96.45540902 -1.83290838 102.47441337 -10.47265625 103.42578125 C-17.25070147 103.50695544 -22.99701875 103.51375842 -28.421875 99.08984375 C-33.51892396 93.73053053 -36.35198908 88.268494 -36.859375 80.83984375 C-36.65020033 72.52863674 -31.28333015 65.57093083 -26.65625 59 C-23.69974402 54.42490056 -23.79147717 49.2922647 -24.8125 44.10546875 C-26.1757832 39.7359713 -28.26773327 37.01393685 -31.421875 33.71484375 C-36.17033037 28.6253391 -38.25290688 23.71342585 -38.5078125 16.73828125 C-38.09680402 10.44336184 -36.16827542 4.83624417 -31.66015625 0.328125 C-21.85483059 -7.62786616 -10.05440949 -7.93001007 0 0 Z " fill="#F2AA4A" transform="translate(38.421875,90.91015625)"/>
<path d="M0 0 C6.76224773 6.13320143 9.21841773 10.93116446 10 20 C10.08746775 27.23483284 6.07114097 32.05520478 1.63183594 37.39599609 C-2.69544888 42.60571391 -4.5462728 46.8148333 -4.37890625 53.54296875 C-3.25866768 60.8071962 1.57627931 67.14006027 5.765625 72.9921875 C8.63234588 77.65514488 8.67097758 82.96739267 7.50390625 88.2421875 C5.54133114 94.82845652 2.50444484 99.74705122 -3.5 103.375 C-9.37286965 106.02224049 -16.8721788 106.48941471 -22.95678711 104.29394531 C-28.06776183 101.95169567 -31.72547944 98.80338948 -35.5625 94.75 C-36.12694824 94.17008301 -36.69139648 93.59016602 -37.27294922 92.99267578 C-40.70545187 89.44129858 -44.00122959 85.79436951 -47.19140625 82.0234375 C-49.5361322 79.40018039 -52.04998475 76.96024959 -54.5625 74.5 C-61.77651188 67.3898308 -68.23581773 60.80710738 -68.375 50.1875 C-68.40335937 49.21167969 -68.43171875 48.23585937 -68.4609375 47.23046875 C-67.193046 38.34448343 -61.49222423 32.95023069 -55.25 26.9375 C-54.4765625 26.17373047 -53.703125 25.40996094 -52.90625 24.62304688 C-48.64275687 20.44181914 -44.2663348 16.43954825 -39.74609375 12.53881836 C-37.50926615 10.56752021 -35.43771988 8.46406362 -33.375 6.3125 C-23.93034053 -3.18059362 -12.24382039 -7.79152207 0 0 Z " fill="#F0A642" transform="translate(396,89)"/>
<path d="M0 0 C6.8840483 5.65577412 13.04073908 11.99309059 19.26147461 18.35742188 C20.65564299 19.78161559 22.05623404 21.19951322 23.45703125 22.6171875 C24.28178955 23.45878418 25.10654785 24.30038086 25.95629883 25.16748047 C27.79068113 27.22253087 27.79068113 27.22253087 30 27 C31.18359375 28.64453125 31.18359375 28.64453125 32.4375 30.8125 C34.06284575 33.60972514 35.67973631 35.75405507 38 38 C37.59063202 38.33749771 37.18126404 38.67499542 36.75949097 39.02272034 C29.98427097 44.77272863 23.7986644 51.10213605 17.54794693 57.40745354 C15.47443276 59.49850582 13.39726687 61.58586731 11.31906128 63.67225647 C5.41673149 69.59892831 -0.47976113 75.53138366 -6.37207031 81.46801758 C-9.98860375 85.1112482 -13.60992466 88.74966195 -17.23428726 92.38510323 C-18.61333917 93.77037651 -19.99048901 95.15754596 -21.36571884 96.54661369 C-23.27822998 98.47822396 -25.19671416 100.40370366 -27.11669922 102.32788086 C-27.68603683 102.90598007 -28.25537445 103.48407928 -28.84196472 104.07969666 C-32.77210071 108 -32.77210071 108 -35 108 C-38.39921384 85.72300927 -37.41859191 65.15954689 -30.6875 43.5625 C-30.41607178 42.68754883 -30.14464355 41.81259766 -29.86499023 40.91113281 C-25.64049856 28.06481019 -19.96623382 19.07116862 -10.125 9.75 C-9.1392196 8.79441643 -8.15483531 7.83739046 -7.171875 6.87890625 C-4.79450554 4.57145942 -2.40426948 2.27934741 0 0 Z " fill="#23303E" transform="translate(107,140)"/>
<path d="M0 0 C6.32871029 5.23778053 12.14920611 10.95017993 17.97265625 16.734375 C18.48831083 17.24595406 19.00396542 17.75753311 19.5352459 18.28461456 C22.26187175 20.99051028 24.98530049 23.6995788 27.70629883 26.41113281 C30.49383731 29.18760359 33.29286345 31.9521873 36.09462833 34.71429062 C38.26941763 36.86276591 40.43511264 39.020242 42.59856987 41.18012238 C43.62568997 42.20241876 44.65614221 43.22138006 45.6901722 44.23668671 C54.23104492 52.63236746 61.42555147 60.38327198 62.25 72.75 C62.12143698 80.33521799 59.2358761 87.50370074 54 93 C47.70141056 98.52225167 39.81404729 100.28699915 31.546875 99.87890625 C24.54809651 98.69205046 17.53498013 94.4833723 13 89 C12.84301758 87.10571289 12.84301758 87.10571289 13.14453125 84.97265625 C13.24475586 84.18681152 13.34498047 83.4009668 13.44824219 82.59130859 C13.56844727 81.75680176 13.68865234 80.92229492 13.8125 80.0625 C14.02634853 78.32733697 14.23599874 76.59165126 14.44140625 74.85546875 C14.54211426 74.0154834 14.64282227 73.17549805 14.74658203 72.31005859 C16.99035817 51.85667722 11.78626904 30.67058714 4.13671875 11.82421875 C2.57212849 7.9369378 1.28412176 3.987536 0 0 Z " fill="#1F2A35" transform="translate(320,160)"/>
<path d="M0 0 C5.2049878 3.18755067 9.37610874 7.0096377 13.6875 11.3125 C14.35072266 11.95123047 15.01394531 12.58996094 15.69726562 13.24804688 C20.56218197 18.08356796 23.43779345 22.07468401 24.43359375 29.02734375 C24.43488281 29.98769531 24.43617187 30.94804687 24.4375 31.9375 C24.45683594 32.89527344 24.47617188 33.85304687 24.49609375 34.83984375 C23.22478251 42.93819645 18.31967957 48.30888044 12.75 54 C12.07904297 54.70060547 11.40808594 55.40121094 10.71679688 56.12304688 C6.76655825 60.23420696 2.75832315 64.28548053 -1.3125 68.27734375 C-3.13386498 70.13665383 -4.81440235 72.07966527 -6.5 74.0625 C-11.94480047 80.365043 -17.45905651 86.53368297 -26.15625 87.265625 C-27.2596875 87.26046875 -28.363125 87.2553125 -29.5 87.25 C-30.6034375 87.25515625 -31.706875 87.2603125 -32.84375 87.265625 C-35.96392334 87.00303615 -38.18304814 86.32438782 -41 85 C-37.97218279 80.92810789 -34.75724037 77.93736066 -30.75 74.8125 C-13.65012125 61.09577357 -3.94634458 40.48193029 -1 19 C-0.44971564 12.67675529 -0.19609719 6.34272983 0 0 Z " fill="#ECA030" transform="translate(54,107)"/>
<path d="M0 0 C2.75329021 1.79562405 4.52627461 3.05254922 6 6 C6.36206054 10.41713859 6.51432609 12.94898583 4.5625 16.9375 C1.00078585 19.80424554 -2.47111448 20.31096221 -7 20 C-10.84388749 18.48595079 -12.27928016 16.78558365 -14 13 C-14.60128511 8.96279995 -14.16532301 7.30214205 -12.1875 3.6875 C-8.71817128 -0.57481815 -5.27011612 -0.45432036 0 0 Z " fill="#F8971B" transform="translate(951,36)"/>
<path d="M0 0 C0.495 1.485 0.495 1.485 1 3 C-1 5 -1 5 -3.98071289 7.48681641 C-9.02106312 11.79040822 -13.63796186 16.51428163 -18.30859375 21.2109375 C-19.28485986 22.18907267 -20.26134994 23.16698435 -21.23805237 24.14468384 C-23.78672577 26.69714399 -26.33237958 29.25259448 -28.87738037 31.80871582 C-31.48346618 34.42509914 -34.09244621 37.03859303 -36.70117188 39.65234375 C-41.80359118 44.76543246 -46.90281857 49.88168912 -52 55 C-52 52 -52 52 -50.02587891 49.66511536 C-49.10210449 48.74800278 -48.17833008 47.8308902 -47.2265625 46.88598633 C-46.465784 46.1245507 -46.465784 46.1245507 -45.68963623 45.34773254 C-44.00843622 43.66862555 -42.31685314 42.00039815 -40.625 40.33203125 C-39.45849532 39.17112069 -38.29265046 38.00954679 -37.12744141 36.84733582 C-34.05645698 33.78781461 -30.97657047 30.73740817 -27.89477539 27.68878174 C-24.75257363 24.57724894 -21.61883036 21.45722333 -18.484375 18.33789062 C-12.33118678 12.21689262 -6.16857301 6.10549313 0 0 Z " fill="#0C1015" transform="translate(84,161)"/>
<path d="M0 0 C0.66 0.33 1.32 0.66 2 1 C-0.97 3.97 -3.94 6.94 -7 10 C-7 6.04435836 -5.59478606 4.89133304 -3 2 C-2.01 1.34 -1.02 0.68 0 0 Z " fill="#EDA335" transform="translate(11,88)"/>
</svg>
