<?xml version="1.0" standalone="no"?>
<!DOCTYPE svg PUBLIC "-//W3C//DTD SVG 20010904//EN"
 "http://www.w3.org/TR/2001/REC-SVG-20010904/DTD/svg10.dtd">
<svg version="1.0" xmlns="http://www.w3.org/2000/svg"
 width="500.000000pt" height="118.000000pt" viewBox="0 0 500.000000 118.000000"
 preserveAspectRatio="xMidYMid meet">

<g transform="translate(0.000000,118.000000) scale(0.100000,-0.100000)"
fill="#000000" stroke="none">
<path d="M276 917 c-22 -16 -18 -65 5 -80 23 -14 67 0 74 24 8 25 -19 69 -43
69 -10 0 -26 -6 -36 -13z"/>
<path d="M450 584 l0 -345 37 3 37 3 0 343 1 342 -37 0 -38 0 0 -346z"/>
<path d="M1590 585 l0 -345 65 0 65 0 0 88 c0 73 3 92 18 105 10 10 21 17 24
17 3 0 38 -47 78 -105 l74 -105 73 0 c40 0 73 3 73 6 0 3 -44 68 -97 146 -54
77 -97 142 -97 145 1 3 43 51 93 108 50 57 91 107 91 110 0 3 -33 5 -72 4
l-73 0 -74 -89 c-41 -49 -78 -96 -83 -104 -23 -40 -28 -6 -28 174 l0 190 -65
0 -65 0 0 -345z"/>
<path d="M2310 585 l0 -345 65 0 65 0 0 45 c0 47 14 60 25 25 9 -27 70 -67
116 -75 91 -17 184 47 213 145 20 69 20 171 0 240 -29 98 -122 162 -213 145
-46 -8 -107 -48 -116 -75 -16 -50 -25 -11 -25 110 l0 130 -65 0 -65 0 0 -345z
m309 50 c55 -28 77 -135 45 -214 -20 -50 -51 -71 -105 -71 -85 0 -138 100
-109 206 23 81 98 116 169 79z"/>
<path d="M3080 752 c-20 -9 -41 -31 -50 -49 -19 -41 -34 -43 -27 -3 11 52 2
60 -69 60 l-64 0 0 -260 0 -261 67 3 68 3 -4 151 c-4 206 13 246 108 248 l49
1 7 54 c9 74 -15 89 -85 53z"/>
<path d="M3557 759 c-94 -22 -141 -73 -140 -151 1 -82 49 -128 153 -149 129
-25 159 -44 145 -90 -18 -56 -148 -50 -174 7 -10 22 -17 24 -76 24 -73 0 -71
3 -45 -65 23 -59 105 -97 211 -98 135 -1 219 62 219 164 0 86 -34 110 -220
154 -83 20 -107 48 -77 89 9 12 31 20 63 23 40 4 53 1 72 -17 12 -11 22 -27
22 -35 0 -12 15 -15 65 -15 70 0 73 3 51 53 -20 49 -77 93 -136 106 -58 13
-80 13 -133 0z"/>
<path d="M2092 503 l3 -258 68 -3 67 -3 0 261 0 260 -70 0 -70 0 2 -257z"/>
<path d="M3210 500 l0 -260 64 0 c43 0 65 4 67 13 2 6 3 123 1 260 l-3 247
-65 0 -64 0 0 -260z"/>
<path d="M715 727 c-51 -25 -71 -48 -86 -99 -7 -27 -6 -28 29 -28 31 0 40 5
54 30 19 34 53 50 104 50 71 0 114 -45 114 -120 0 -26 -2 -27 -62 -29 -186 -4
-261 -48 -260 -152 2 -138 171 -195 278 -94 20 19 38 35 40 35 2 0 4 -18 4
-40 0 -39 1 -40 35 -40 l35 0 0 196 c0 220 -5 242 -65 283 -54 36 -154 40
-220 8z m198 -349 c-10 -17 -29 -39 -43 -50 -80 -59 -207 -7 -186 76 11 43 50
60 150 66 l91 5 3 -33 c2 -19 -4 -46 -15 -64z"/>
<path d="M1252 734 c-19 -10 -41 -28 -49 -41 -22 -33 -33 -29 -33 12 0 34 -1
35 -41 35 l-42 0 7 -46 c3 -26 6 -138 6 -250 l0 -204 35 0 35 0 0 164 c0 218
18 260 118 273 44 6 105 -18 119 -45 4 -9 10 -100 13 -202 l5 -185 38 -3 37
-3 0 188 c0 176 -2 192 -22 233 -13 24 -35 53 -50 64 -38 27 -132 32 -176 10z"/>
<path d="M270 490 l0 -250 38 0 39 0 0 250 -1 250 -38 0 -38 0 0 -250z"/>
<path d="M4697 654 c-4 -4 -7 -25 -7 -46 0 -34 -3 -38 -25 -38 -20 0 -25 -5
-25 -25 0 -20 5 -25 25 -25 l25 0 0 -120 c0 -107 2 -122 20 -140 27 -27 90
-28 90 -1 0 12 -9 20 -29 24 -25 5 -29 11 -35 53 -3 26 -6 78 -6 115 l0 69 36
0 c31 0 35 3 32 23 -2 17 -11 23 -35 25 -30 3 -32 6 -35 44 -3 39 -16 57 -31
42z"/>
<path d="M4030 405 l0 -165 25 0 25 0 0 114 c0 107 2 117 24 143 19 22 32 28
66 28 29 0 46 -6 55 -19 18 -24 29 -134 21 -207 l-6 -59 31 0 31 0 -7 132 c-5
85 -12 140 -21 154 -33 49 -115 59 -163 18 l-31 -26 0 26 c0 21 -5 26 -25 26
l-25 0 0 -165z"/>
<path d="M4412 550 c-83 -51 -96 -204 -22 -275 24 -23 41 -30 88 -33 52 -4 61
-1 90 23 18 15 37 36 43 46 17 32 -17 36 -49 6 -15 -13 -37 -28 -50 -32 -35
-10 -90 13 -107 45 -30 58 -26 60 100 60 l115 0 0 32 c0 112 -116 184 -208
128z m136 -57 c12 -13 22 -33 22 -44 0 -17 -8 -19 -91 -19 l-91 0 7 28 c18 72
101 92 153 35z"/>
<path d="M3922 301 c-8 -4 -12 -19 -10 -32 2 -18 9 -24 28 -24 19 0 26 6 28
24 3 20 -11 41 -28 41 -3 0 -11 -4 -18 -9z"/>
</g>
</svg>
