<svg width="493" height="119" viewBox="0 0 493 119" fill="none" xmlns="http://www.w3.org/2000/svg">
<rect width="493" height="119" fill="#FDDA00"/>
<path d="M25.8424 93V43.9992H34.0406V93H25.8424ZM29.9415 35.7067C28.528 35.7067 27.3187 35.2042 26.3136 34.199C25.3084 33.1939 24.8058 31.9846 24.8058 30.5711C24.8058 29.1262 25.3084 27.9169 26.3136 26.9431C27.3187 25.938 28.528 25.4354 29.9415 25.4354C31.3864 25.4354 32.5957 25.938 33.5695 26.9431C34.5746 27.9169 35.0772 29.1262 35.0772 30.5711C35.0772 31.9846 34.5746 33.1939 33.5695 34.199C32.5957 35.2042 31.3864 35.7067 29.9415 35.7067ZM43.5263 93V25.0114H51.7245V93H43.5263ZM75.0153 93.9423C71.78 93.9423 68.9373 93.3298 66.4873 92.1048C64.0372 90.8798 62.1212 89.1522 60.7391 86.922C59.3884 84.6918 58.7131 82.1005 58.7131 79.1478V79.0536C58.7131 76.2581 59.4041 73.8394 60.7862 71.7977C62.1997 69.756 64.2257 68.1384 66.8642 66.9448C69.5341 65.7511 72.738 65.0444 76.4759 64.8245L94.6156 63.788V70.1487L77.4182 71.1852C74.1515 71.3737 71.6072 72.1589 69.7854 73.541C67.995 74.9231 67.0998 76.7606 67.0998 79.0536V79.1478C67.0998 81.5037 67.9793 83.3726 69.7383 84.7547C71.5287 86.1367 73.9002 86.8278 76.8528 86.8278C79.4285 86.8278 81.7372 86.2938 83.7789 85.2258C85.852 84.1265 87.4854 82.6344 88.679 80.7498C89.904 78.8651 90.5165 76.7449 90.5165 74.3891V59.9245C90.5165 56.9404 89.5742 54.6003 87.6895 52.9041C85.8363 51.1765 83.1978 50.3128 79.774 50.3128C76.633 50.3128 74.0887 51.0038 72.1412 52.3859C70.2252 53.7365 69.0315 55.5112 68.5604 57.71L68.4661 58.134H60.5506L60.5977 57.6158C60.849 54.9144 61.7599 52.4644 63.3305 50.2656C64.9324 48.0669 67.1312 46.3236 69.9268 45.0357C72.7223 43.7165 76.0361 43.0569 79.8683 43.0569C83.7318 43.0569 87.0613 43.7165 89.8569 45.0357C92.6839 46.355 94.8669 48.2239 96.406 50.6426C97.9452 53.0298 98.7147 55.8568 98.7147 59.1235V93H90.5165V85.0374H90.3281C89.3857 86.8278 88.1293 88.3983 86.5588 89.749C84.9882 91.0682 83.2135 92.1048 81.2346 92.8587C79.2872 93.5811 77.2141 93.9423 75.0153 93.9423ZM107.023 93V43.9992H115.221V50.9724H115.409C116.728 48.6794 118.645 46.7947 121.157 45.3184C123.67 43.8107 126.78 43.0569 130.486 43.0569C135.858 43.0569 140.02 44.6902 142.972 47.9569C145.956 51.1923 147.448 55.6055 147.448 61.1966V93H139.25V62.6572C139.25 58.668 138.308 55.6212 136.423 53.5167C134.57 51.3807 131.759 50.3128 127.989 50.3128C125.414 50.3128 123.168 50.8939 121.252 52.0561C119.336 53.1868 117.844 54.7888 116.776 56.8619C115.739 58.935 115.221 61.3693 115.221 64.1649V93H107.023ZM155.426 93V25.0114H169.184V93H155.426ZM187.182 93L171.587 70.6669L180.304 60.2071L203.061 93H187.182ZM167.488 78.1113V62.7043H169.467L186.523 42.4915H202.118L178.796 69.0179H175.733L167.488 78.1113ZM205.055 93V42.4915H218.813V93H205.055ZM255.861 94.0366C253.443 94.0366 251.228 93.6439 249.218 92.8587C247.208 92.0734 245.449 90.974 243.941 89.5605C242.433 88.1156 241.224 86.388 240.313 84.3777H240.03V93H226.273V25.0114H240.03V51.2551H240.313C241.255 49.2134 242.481 47.4701 243.988 46.0252C245.496 44.5489 247.255 43.4181 249.265 42.6328C251.307 41.8475 253.521 41.4549 255.909 41.4549C260.149 41.4549 263.793 42.5072 266.84 44.6117C269.918 46.6848 272.289 49.6845 273.954 53.6109C275.619 57.5058 276.451 62.2017 276.451 67.6986V67.7457C276.451 73.2112 275.619 77.9071 273.954 81.8335C272.289 85.7598 269.918 88.7753 266.84 90.8798C263.761 92.9843 260.102 94.0366 255.861 94.0366ZM251.291 82.6344C253.584 82.6344 255.563 82.0376 257.228 80.844C258.893 79.619 260.18 77.8914 261.091 75.6613C262.002 73.4311 262.458 70.7926 262.458 67.7457V67.6986C262.458 64.6204 262.002 61.9819 261.091 59.7831C260.18 57.5529 258.877 55.841 257.181 54.6474C255.516 53.4538 253.553 52.857 251.291 52.857C249.061 52.857 247.098 53.4695 245.402 54.6946C243.737 55.8882 242.418 57.6001 241.444 59.8302C240.502 62.029 240.03 64.6518 240.03 67.6986V67.7457C240.03 70.7926 240.502 73.4311 241.444 75.6613C242.386 77.8914 243.706 79.619 245.402 80.844C247.098 82.0376 249.061 82.6344 251.291 82.6344ZM281.414 93V42.4915H295.172V51.3022H295.454C296.208 48.1925 297.575 45.7739 299.554 44.0463C301.532 42.3187 303.998 41.4549 306.951 41.4549C307.705 41.4549 308.427 41.502 309.118 41.5963C309.809 41.6905 310.406 41.8161 310.909 41.9732V54.082C310.343 53.8622 309.621 53.6894 308.741 53.5638C307.862 53.4067 306.919 53.3282 305.914 53.3282C303.653 53.3282 301.721 53.7679 300.119 54.6474C298.517 55.5269 297.292 56.8148 296.444 58.511C295.596 60.2071 295.172 62.2803 295.172 64.7303V93H281.414ZM314.74 93V42.4915H328.498V93H314.74ZM356.406 94.0366C351.758 94.0366 347.8 93.3612 344.533 92.0106C341.266 90.6599 338.706 88.791 336.853 86.4037C335.031 83.9851 333.932 81.1895 333.555 78.0171L333.508 77.593H346.936L347.03 78.0171C347.47 79.9959 348.459 81.5351 349.999 82.6344C351.538 83.7338 353.674 84.2835 356.406 84.2835C358.165 84.2835 359.657 84.0793 360.882 83.671C362.107 83.2312 363.05 82.6187 363.709 81.8335C364.4 81.0482 364.746 80.1059 364.746 79.0065V78.9594C364.746 77.6087 364.259 76.525 363.285 75.7084C362.312 74.8917 360.584 74.2006 358.103 73.6353L349.527 71.8448C346.261 71.1538 343.528 70.1644 341.329 68.8765C339.162 67.5573 337.528 65.9396 336.429 64.0236C335.33 62.0761 334.78 59.8459 334.78 57.3331V57.2859C334.78 54.0506 335.644 51.2551 337.371 48.8993C339.099 46.5435 341.549 44.7216 344.722 43.4338C347.925 42.1145 351.663 41.4549 355.935 41.4549C360.396 41.4549 364.181 42.1774 367.29 43.6223C370.431 45.0357 372.834 46.9518 374.499 49.3704C376.195 51.7891 377.09 54.4747 377.185 57.4273V57.8985H364.51L364.463 57.5215C364.243 55.6997 363.395 54.192 361.919 52.9984C360.474 51.7734 358.479 51.1608 355.935 51.1608C354.365 51.1608 352.998 51.3807 351.836 51.8205C350.674 52.2602 349.779 52.8884 349.15 53.7051C348.522 54.4904 348.208 55.4327 348.208 56.5321V56.5792C348.208 57.4273 348.412 58.1969 348.821 58.8879C349.26 59.5475 349.983 60.1286 350.988 60.6312C351.993 61.1338 353.344 61.5735 355.04 61.9504L363.615 63.788C368.924 64.8874 372.724 66.5364 375.017 68.7352C377.342 70.9339 378.504 73.8865 378.504 77.593V77.6401C378.504 80.9383 377.562 83.8123 375.677 86.2624C373.792 88.7124 371.185 90.6285 367.856 92.0106C364.557 93.3612 360.741 94.0366 356.406 94.0366Z" fill="black"/>
<path d="M386.737 93.4287C385.757 93.4287 384.93 93.0919 384.257 92.4182C383.583 91.7444 383.246 90.9176 383.246 89.9377C383.246 88.9577 383.583 88.1309 384.257 87.4572C384.93 86.7834 385.757 86.4466 386.737 86.4466C387.717 86.4466 388.544 86.7834 389.218 87.4572C389.891 88.1309 390.228 88.9577 390.228 89.9377C390.228 90.9176 389.891 91.7444 389.218 92.4182C388.544 93.0919 387.717 93.4287 386.737 93.4287ZM395.567 93V61.1516H400.895V65.6839H401.018C401.875 64.1935 403.121 62.9686 404.754 62.009C406.387 61.0291 408.408 60.5391 410.817 60.5391C414.308 60.5391 417.013 61.6007 418.932 63.724C420.872 65.8268 421.842 68.6952 421.842 72.3292V93H416.513V73.2785C416.513 70.6857 415.901 68.7054 414.676 67.3375C413.471 65.9493 411.644 65.2551 409.194 65.2551C407.52 65.2551 406.06 65.6328 404.815 66.3882C403.57 67.1232 402.6 68.1644 401.906 69.5118C401.232 70.8592 400.895 72.4414 400.895 74.2584V93H395.567ZM440.379 93.6125C437.337 93.6125 434.713 92.9388 432.509 91.5913C430.324 90.2439 428.64 88.3452 427.456 85.8954C426.292 83.4251 425.71 80.526 425.71 77.1983V77.1677C425.71 73.8807 426.302 70.9919 427.486 68.5012C428.67 65.9901 430.334 64.0404 432.478 62.6521C434.622 61.2435 437.143 60.5391 440.042 60.5391C442.941 60.5391 445.432 61.2128 447.514 62.5603C449.617 63.8873 451.23 65.7553 452.353 68.1644C453.475 70.5734 454.037 73.3704 454.037 76.5552V78.5151H428.374V74.3503H451.403L448.708 78.2089V76.1571C448.708 73.6868 448.331 71.6452 447.575 70.0324C446.84 68.4196 445.82 67.2252 444.513 66.4494C443.206 65.6532 441.706 65.2551 440.011 65.2551C438.317 65.2551 436.796 65.6737 435.448 66.5107C434.101 67.3273 433.039 68.5523 432.264 70.1855C431.488 71.7983 431.1 73.7889 431.1 76.1571V78.2089C431.1 80.4546 431.478 82.3737 432.233 83.9661C433.009 85.5585 434.101 86.7834 435.51 87.6409C436.918 88.4779 438.582 88.8965 440.501 88.8965C441.849 88.8965 443.053 88.6923 444.115 88.284C445.177 87.8757 446.065 87.3142 446.779 86.5997C447.494 85.8851 448.004 85.0685 448.31 84.1498L448.402 83.8742H453.639L453.578 84.1804C453.312 85.487 452.802 86.712 452.046 87.8553C451.311 88.9985 450.362 90.0091 449.198 90.887C448.035 91.7444 446.708 92.4182 445.217 92.9081C443.727 93.3777 442.114 93.6125 440.379 93.6125ZM468.409 93.6125C465.49 93.6125 463.305 92.9183 461.856 91.5301C460.406 90.1418 459.682 87.9267 459.682 84.8848V65.5614H455.027V61.1516H459.682V52.5464H465.194V61.1516H471.257V65.5614H465.194V84.8542C465.194 86.5487 465.561 87.7021 466.296 88.3146C467.031 88.9067 468.113 89.2027 469.542 89.2027C469.869 89.2027 470.175 89.1925 470.461 89.1721C470.767 89.1312 471.033 89.1006 471.257 89.0802V93.3981C470.931 93.4389 470.502 93.4798 469.971 93.5206C469.461 93.5818 468.94 93.6125 468.409 93.6125Z" fill="black"/>
</svg>
